<svg xmlns="http://www.w3.org/2000/svg" width="223.82" height="220" viewBox="0 0 223.82 220">
  <g id="logo" transform="translate(10 10)">
    <g id="Exclusion_1" data-name="Exclusion 1" fill="#fbfbf2" stroke-linecap="square">
      <path d="M 96.28566741943359 205.0001983642578 L 96.28566741943359 200 L 96.28566741943359 55.14963912963867 L 66.22467041015625 79.27297210693359 L 63.06643295288086 81.80741119384766 L 59.93104934692383 79.24473571777344 L 30.59963989257813 55.27080154418945 L 30.59963989257813 115.5727920532227 L 30.59963989257813 120.5727920532227 L 25.59963989257813 120.5727920532227 L -7.62939453125e-06 120.5727920532227 L -5.000007629394531 120.5727920532227 L -5.000007629394531 115.5727920532227 L -5.000007629394531 15.11591148376465 L -5.000007629394531 10.11591148376465 L -7.62939453125e-06 10.11591148376465 L 25.3510799407959 10.11591148376465 L 27.15311050415039 10.11591148376465 L 28.54084587097168 11.26552963256836 L 63.09530258178711 39.89127731323242 L 95.83925628662109 12.7651834487915 L 95.83925628662109 0 L 95.83925628662109 -5 L 100.8392562866211 -5 L 126.6763763427734 -5 L 131.6763763427734 -5 L 131.6763763427734 0 L 131.6763763427734 56.88510894775391 C 136.1759490966797 57.03847503662109 143.2120056152344 57.68738174438477 150.9488677978516 59.92567825317383 C 162.4820861816406 63.26202774047852 171.9983520507813 69.01441192626953 179.2333221435547 77.02297210693359 C 184.0850830078125 82.39376831054688 187.2156372070313 88.11111450195313 188.5381469726563 94.01629638671875 C 189.6251068115234 98.87149810791016 189.4898681640625 103.802734375 188.1362609863281 108.6733245849609 C 186.1754150390625 115.7281188964844 182.1905517578125 120.5606842041016 181.0025787353516 121.8889083862305 C 180.3643951416016 122.7841339111328 178.723876953125 124.8928833007813 175.7133483886719 127.5988845825195 C 173.3542175292969 129.7191619873047 169.7381134033203 132.5574493408203 164.6771850585938 135.4744110107422 C 173.9335174560547 143.1286163330078 192.2562103271484 158.2351684570313 203.1797027587891 167.2364654541016 L 206.9111328125 170.3113250732422 L 203.9631042480469 174.1437377929688 C 203.6237640380859 174.5849151611328 203.5337829589844 174.6601715087891 202.4326171875 175.5816802978516 C 201.9439086914063 175.9906158447266 201.2517242431641 176.5691223144531 200.4341125488281 177.2520599365234 C 198.8011169433594 178.6160583496094 196.6669311523438 180.3973541259766 194.6549377441406 182.0761108398438 C 192.6854400634766 183.7194061279297 190.5486755371094 185.5017700195313 188.9013671875 186.8750915527344 C 188.0768432617188 187.5625 187.3748168945313 188.1475067138672 186.8774261474609 188.5615539550781 C 185.8015441894531 189.4572296142578 185.8015441894531 189.4572296142578 185.4709930419922 189.6571502685547 L 182.1057586669922 191.6923217773438 L 179.5305328369141 189.0981597900391 C 177.5118560791016 187.4779663085938 160.3693237304688 173.7642059326172 131.6763763427734 150.8155517578125 L 131.6763763427734 200 L 131.6763763427734 205 L 126.6763763427734 205 L 126.6739654541016 205 L 121.6739654541016 205 L 121.6739654541016 204.9991912841797 L 101.2858734130859 205 L 96.28566741943359 205.0001983642578 Z M 131.2563171386719 84.26475524902344 C 131.2426910400391 91.0455322265625 131.2617797851563 103.3322601318359 131.2948150634766 115.5261917114258 C 136.2507629394531 115.0416564941406 144.0939331054688 113.5229949951172 149.2853088378906 108.8223495483398 C 152.6727905273438 105.7545623779297 154.3729858398438 102.6588516235352 154.3384094238281 99.62146759033203 C 154.2919006347656 95.53694152832031 151.2057495117188 92.26349639892578 149.3702545166016 90.67576599121094 C 146.8439636230469 88.49053192138672 142.0807037353516 86.53126525878906 135.9579620361328 85.15894317626953 C 134.285888671875 84.7841796875 132.6731719970703 84.48963165283203 131.2563171386719 84.26475524902344 Z" stroke="none"/>
      <path d="M 126.6763458251953 200 L 126.6763458251953 140.4141082763672 L 127.7937774658203 141.3077850341797 C 144.3415985107422 154.5424957275391 182.8354949951172 185.330322265625 182.8835296630859 185.3787078857422 C 182.9069519042969 185.3645324707031 187.5137481689453 181.5226135253906 191.4516754150391 178.2369689941406 C 195.4742431640625 174.8806457519531 199.9852752685547 171.1143188476563 200 171.0951843261719 C 198.1929931640625 169.6061401367188 155.7437744140625 134.6252899169922 155.6726379394531 134.4917907714844 C 163.9258422851563 130.7075042724609 169.3087005615234 126.6324310302734 172.3708801269531 123.8802871704102 C 175.6531677246094 120.9300384521484 177.0281372070313 118.8505706787109 177.0848846435547 118.7636413574219 C 177.1278076171875 118.7195358276367 181.3908538818359 114.271110534668 183.31884765625 107.3345031738281 C 184.4497375488281 103.265251159668 184.5641326904297 99.15200042724609 183.6589965820313 95.10900115966797 C 182.5271759033203 90.05517578125 179.7898101806641 85.09785461425781 175.5231323242188 80.37478637695313 C 168.921142578125 73.06685638427734 160.1857757568359 67.80278778076172 149.5593566894531 64.72871398925781 C 140.8828430175781 62.21857070922852 133.1519927978516 61.84378433227539 129.3158569335938 61.84378433227539 C 127.9480667114258 61.84378433227539 127.0309219360352 61.89199829101563 126.6997756958008 61.91275024414063 C 126.6847763061523 61.91371536254883 126.6763458251953 61.91421508789063 126.6763458251953 61.91521453857422 L 126.6763458251953 1.4210854715202e-14 L 100.839241027832 1.4210854715202e-14 L 100.839241027832 15.11589241027832 L 63.09531402587891 46.3841438293457 L 25.35106468200684 15.11589241027832 L -7.62939453125e-06 15.11589241027832 L -7.62939453125e-06 115.5727844238281 L 25.59963607788086 115.5727844238281 L 25.59963607788086 44.72639465332031 L 63.09531402587891 75.37335968017578 L 101.2856674194336 44.72639465332031 L 101.2856674194336 200 L 126.673957824707 199.9989929199219 L 126.673957824707 200 L 126.6763458251953 200 M 126.3695297241211 78.66535949707031 L 126.3704223632813 78.66635894775391 C 127.0795288085938 78.66646575927734 131.7328796386719 79.087890625 137.0514984130859 80.27999877929688 C 141.9425964355469 81.37625122070313 148.6175994873047 83.41368103027344 152.6413421630859 86.89421081542969 C 159.6402740478516 92.94839477539063 163.3154907226563 102.8618927001953 152.6413421630859 112.5287170410156 C 144.2176361083984 120.1561813354492 130.9427032470703 120.7487869262695 127.0747451782227 120.7487487792969 C 126.5958862304688 120.7487487792969 126.3161010742188 120.7384643554688 126.309814453125 120.7380676269531 C 126.3086013793945 120.3183898925781 126.1794891357422 78.76828765869141 126.309814453125 78.67075347900391 C 126.3145980834961 78.66710662841797 126.3449172973633 78.66635894775391 126.3695297241211 78.66635894775391 L 126.3695297241211 78.66535949707031 M 136.6763458251953 210 L 126.6763458251953 210 L 101.2856674194336 210 L 91.28566741943359 210 L 91.28566741943359 200 L 91.28566741943359 65.57295227050781 L 69.35406494140625 83.172607421875 L 63.03756332397461 88.24146270751953 L 56.76681518554688 83.11610412597656 L 35.59963607788086 65.815185546875 L 35.59963607788086 115.5727844238281 L 35.59963607788086 125.5727844238281 L 25.59963607788086 125.5727844238281 L -7.62939453125e-06 125.5727844238281 L -10.00000762939453 125.5727844238281 L -10.00000762939453 115.5727844238281 L -10.00000762939453 15.11589241027832 L -10.00000762939453 5.115892887115479 L -7.62939453125e-06 5.115892887115479 L 25.35106468200684 5.115892887115479 L 28.95513534545898 5.115892887115479 L 31.73056411743164 7.415107250213623 L 63.09529113769531 33.39840698242188 L 90.83924102783203 10.41444873809814 L 90.83924102783203 1.4210854715202e-14 L 90.83924102783203 -10 L 100.839241027832 -10 L 126.6763458251953 -10 L 136.6763458251953 -10 L 136.6763458251953 1.4210854715202e-14 L 136.6763458251953 52.19546127319336 C 141.0636444091797 52.59959030151367 146.5152435302734 53.43796539306641 152.3384246826172 55.12264251708984 C 164.7785339355469 58.72139358520508 175.0756378173828 64.9620361328125 182.9434967041016 73.67121124267578 C 188.3802490234375 79.68946075439453 191.9040679931641 86.16689300537109 193.4172821044922 92.92360687255859 C 194.6860656738281 98.59085845947266 194.530029296875 104.3400726318359 192.9537048339844 110.0121459960938 C 190.8031616210938 117.7493743896484 186.5788421630859 123.1175231933594 184.9031066894531 125.0271530151367 C 183.998291015625 126.2615737915039 182.1486053466797 128.5375366210938 179.0557708740234 131.3175048828125 C 177.5633087158203 132.6588592529297 175.6078948974609 134.2651977539063 173.1543426513672 135.9942932128906 C 185.8409118652344 146.4704284667969 205.1552734375 162.3855590820313 206.3593902587891 163.3777923583984 L 213.8195648193359 169.5252532958984 L 207.9284210205078 177.1894226074219 C 207.2350616455078 178.0914611816406 207.2350616455078 178.0914611816406 197.8582000732422 185.9152526855469 C 188.7399139404297 193.5231781005859 188.7399139404297 193.5231781005859 188.0610656738281 193.9340362548828 L 181.3294525146484 198.0078887939453 L 176.1809387207031 192.8211059570313 C 173.0821838378906 190.3365325927734 153.1309509277344 174.3778686523438 136.6763458251953 161.2171020507813 L 136.6763458251953 200 L 136.6763458251953 210 Z M 136.2516174316406 90.36536407470703 C 136.2527465820313 95.76009368896484 136.2635040283203 102.5784225463867 136.280029296875 109.658935546875 C 139.9508972167969 108.7825622558594 143.4849395751953 107.3293151855469 145.9293212890625 105.1159973144531 C 147.2120971679688 103.9542465209961 149.3617706298828 101.7021408081055 149.3386993408203 99.67839050292969 C 149.3213195800781 98.14871215820313 148.1102752685547 96.19689178466797 146.0991668701172 94.45728302001953 C 145.4468688964844 93.89305114746094 142.8875579833984 92.0146484375 136.2516174316406 90.36536407470703 Z" stroke="none" fill="#ed6a5a"/>
    </g>
    <text id="Michelle_Racho" data-name="Michelle Racho" transform="translate(86 193) rotate(-90)" fill="#fbfbf2" font-size="16" font-family="Comfortaa" letter-spacing="0.01em" font-weight="700"><tspan x="0" y="0">M</tspan><tspan y="0" font-size="13" font-weight="400">ichelle</tspan><tspan y="0" xml:space="preserve"> R</tspan><tspan y="0" font-size="13" font-weight="400">acho</tspan></text>
  </g>
</svg>
