<svg xmlns="http://www.w3.org/2000/svg" width="296" height="120" viewBox="0 0 296 120">
  <g id="logo-lg" transform="translate(10 10)">
    <g id="Exclusion_1" data-name="Exclusion 1" fill="#fbfbf2" stroke-linecap="square">
      <path d="M 45.6428337097168 105.0001983642578 L 45.6428337097168 100 L 45.6428337097168 32.78644561767578 L 34.6770133972168 41.5862922668457 L 31.51876068115234 44.1207275390625 L 28.38339614868164 41.55803680419922 L 17.79981422424316 32.90757751464844 L 17.79981422424316 57.78639984130859 L 17.79981422424316 62.78639984130859 L 12.79981422424316 62.78639984130859 L -3.814697265625e-06 62.78639984130859 L -5.000003814697266 62.78639984130859 L -5.000003814697266 57.78639984130859 L -5.000003814697266 7.557963848114014 L -5.000003814697266 2.557963609695435 L -3.814697265625e-06 2.557963609695435 L 12.67554187774658 2.557963609695435 L 14.47757816314697 2.557963609695435 L 15.8652868270874 3.707581758499146 L 31.54762840270996 16.69921112060547 L 45.41961288452148 5.207236766815186 L 45.41961288452148 0 L 45.41961288452148 -5 L 50.41961288452148 -5 L 63.33817672729492 -5 L 68.33818054199219 -5 L 68.33818054199219 0 L 68.33818054199219 26.09773063659668 C 70.53182220458984 26.29979705810547 73.25759887695313 26.71898460388184 76.16921234130859 27.56132698059082 C 82.38922882080078 29.36067199707031 87.53778076171875 32.48097991943359 91.47176361083984 36.8355827331543 C 94.19012451171875 39.84476470947266 95.95203399658203 43.08345413208008 96.70863342285156 46.46179962158203 C 97.343017578125 49.29538345336914 97.2650146484375 52.16998291015625 96.47686767578125 55.00603485107422 C 95.40182495117188 58.87383651733398 93.28924560546875 61.55866241455078 92.45182800292969 62.51320648193359 C 91.99947357177734 63.13040924072266 91.07463073730469 64.26847076416016 89.52787017822266 65.65876007080078 C 88.78174591064453 66.32933807373047 87.80431365966797 67.13230133056641 86.57778930664063 67.9967041015625 C 91.25779724121094 71.86144256591797 98.03106689453125 77.44622802734375 103.1797027587891 81.68891143798828 L 106.9162673950195 84.76799774169922 L 103.9589080810547 88.60161590576172 C 103.6236877441406 89.03614807128906 103.405029296875 89.21912384033203 102.820671081543 89.7081298828125 C 102.5759048461914 89.91294860839844 102.2292175292969 90.20269012451172 101.8197021484375 90.54474639892578 C 101.0029220581055 91.22698211669922 99.93547058105469 92.11794281005859 98.92912292480469 92.95761871337891 C 97.94406890869141 93.77951049804688 96.87541198730469 94.67092895507813 96.05154418945313 95.35778045654297 C 94.36299896240234 96.76547241210938 94.36299896240234 96.76547241210938 94.03370666503906 96.965087890625 L 90.66661071777344 99.00621795654297 L 88.09043884277344 96.41055297851563 C 86.83338928222656 95.40277099609375 79.84854125976563 89.81484222412109 68.33818054199219 80.60855865478516 L 68.33818054199219 100 L 68.33818054199219 105 L 63.33817672729492 105 L 63.33697891235352 105 L 58.33697891235352 105 L 58.33697891235352 104.9996948242188 L 50.64303207397461 105 L 45.6428337097168 105.0001983642578 Z M 68.12584686279297 45.18270874023438 C 68.12641143798828 47.88054275512695 68.13179016113281 51.29049682617188 68.14003753662109 54.83133316040039 C 69.96881103515625 54.39410018920898 71.73997497558594 53.66691207885742 72.96465301513672 52.55799865722656 C 73.60604858398438 51.97712707519531 74.68087005615234 50.85107421875 74.66935729980469 49.83917999267578 C 74.66065216064453 49.07436370849609 74.05512237548828 48.09845352172852 73.04957580566406 47.2286376953125 C 72.72342681884766 46.9465217590332 71.44383239746094 46.00733184814453 68.12584686279297 45.18270874023438 Z" stroke="none"/>
      <path d="M 63.33817672729492 100 L 63.33817672729492 70.20704650878906 L 63.89688110351563 70.65388488769531 C 72.17081451416016 77.27124786376953 91.41774749755859 92.6651611328125 91.4417724609375 92.68936157226563 C 91.45347595214844 92.6822509765625 93.75685882568359 90.76129913330078 95.72583770751953 89.11847686767578 C 97.73710632324219 87.44031524658203 99.99263000488281 85.55715942382813 100 85.54759216308594 C 99.09649658203125 84.80307006835938 77.87190246582031 67.31263732910156 77.83631134033203 67.24588775634766 C 81.96290588378906 65.35375213623047 84.65433502197266 63.31622695922852 86.18544769287109 61.94013595581055 C 87.82658386230469 60.46502304077148 88.51406097412109 59.42529678344727 88.54242706298828 59.38181686401367 C 88.56390380859375 59.35977172851563 90.69542694091797 57.13554382324219 91.65943145751953 53.66725158691406 C 92.22486114501953 51.63261413574219 92.28206634521484 49.57600021362305 91.82947540283203 47.55450057983398 C 91.26358795166016 45.02759170532227 89.89490509033203 42.54893112182617 87.76156616210938 40.18738555908203 C 84.46056365966797 36.53343200683594 80.09288024902344 33.90138626098633 74.77967834472656 32.36436462402344 C 70.44142913818359 31.10929489135742 66.57599639892578 30.9218864440918 64.65792846679688 30.9218864440918 C 63.97401809692383 30.9218864440918 63.51544952392578 30.94599914550781 63.34988403320313 30.95636367797852 C 63.34238433837891 30.95684051513672 63.33817672729492 30.95711326599121 63.33817672729492 30.95761299133301 L 63.33817672729492 0 L 50.41960906982422 0 L 50.41960906982422 7.55795431137085 L 31.54765510559082 23.19206809997559 L 12.67554187774658 7.55795431137085 L -3.814697265625e-06 7.55795431137085 L -3.814697265625e-06 57.78638458251953 L 12.79981422424316 57.78638458251953 L 12.79981422424316 22.36318206787109 L 31.54765510559082 37.68668365478516 L 50.64283752441406 22.36318206787109 L 50.64283752441406 100 L 63.33697509765625 99.99949645996094 L 63.33697509765625 100 L 63.33817672729492 100 M 63.18476867675781 39.33268356323242 L 63.18522262573242 39.33318328857422 C 63.53976821899414 39.33322906494141 65.86642456054688 39.54395294189453 68.52574920654297 40.13999938964844 C 70.97129058837891 40.68813705444336 74.30879211425781 41.70681762695313 76.3206787109375 43.44711303710938 C 79.82012939453125 46.47420501708984 81.65774536132813 51.43093109130859 76.3206787109375 56.26436233520508 C 72.10881805419922 60.07809066772461 65.47135925292969 60.37438583374023 63.53736114501953 60.37436294555664 C 63.29795074462891 60.37436294555664 63.15804290771484 60.36922836303711 63.15490341186523 60.36904525756836 C 63.15429306030273 60.15918350219727 63.08974456787109 39.38413619995117 63.15490341186523 39.33536529541016 C 63.15729141235352 39.33356857299805 63.17245101928711 39.33318328857422 63.18476867675781 39.33318328857422 L 63.18476867675781 39.33268356323242 M 73.33818054199219 110 L 63.33817672729492 110 L 50.64283752441406 110 L 40.64283752441406 110 L 40.64283752441406 100 L 40.64283752441406 43.20973587036133 L 37.80638122558594 45.48593139648438 L 31.48988342285156 50.55479431152344 L 25.21915435791016 45.42940902709961 L 22.79981422424316 43.45196533203125 L 22.79981422424316 57.78638458251953 L 22.79981422424316 67.78638458251953 L 12.79981422424316 67.78638458251953 L -3.814697265625e-06 67.78638458251953 L -10.00000381469727 67.78638458251953 L -10.00000381469727 57.78638458251953 L -10.00000381469727 7.55795431137085 L -10.00000381469727 -2.442045450210571 L -3.814697265625e-06 -2.442045450210571 L 12.67554187774658 -2.442045450210571 L 16.27963256835938 -2.442045450210571 L 19.0550422668457 -0.1428181827068329 L 31.5476188659668 10.20633411407471 L 40.41960906982422 2.856501579284668 L 40.41960906982422 0 L 40.41960906982422 -10 L 50.41960906982422 -10 L 63.33817672729492 -10 L 73.33818054199219 -10 L 73.33818054199219 0 L 73.33818054199219 21.75543403625488 C 74.68041229248047 22.00854682922363 76.09877777099609 22.33589935302734 77.55874633789063 22.75827217102051 C 84.68567657470703 24.81997680664063 90.61504364013672 28.42859077453613 95.18193054199219 33.48379516601563 C 98.48533630371094 37.14056777954102 100.6405181884766 41.13933944702148 101.5877685546875 45.36918258666992 C 102.4039535522461 49.01470565795898 102.30517578125 52.70724868774414 101.2942886352539 56.34481811523438 C 100.0147933959961 60.94824981689453 97.58219146728516 64.21157836914063 96.349365234375 65.65003204345703 C 95.90962219238281 66.23350524902344 95.26020812988281 67.02317047119141 94.36574554443359 67.94225311279297 C 99.95855712890625 72.55593872070313 105.8921127319336 77.44515228271484 106.3594284057617 77.83023071289063 L 113.8239517211914 83.98131561279297 L 107.9248352050781 91.64652252197266 C 107.2427673339844 92.53277587890625 107.2427673339844 92.53277587890625 102.1324081420898 96.7967529296875 C 99.63810729980469 98.87786102294922 96.6502685546875 101.2258605957031 96.63545227050781 101.23486328125 L 89.89799499511719 105.3296585083008 L 84.74162292480469 100.1342697143555 C 83.34687805175781 99.01689147949219 78.65409851074219 95.26263427734375 73.33818054199219 91.01047515869141 L 73.33818054199219 100 L 73.33818054199219 110 Z" stroke="none" fill="#ed6a5a"/>
    </g>
    <g id="Group_4" data-name="Group 4" transform="translate(-141 -440)">
      <text id="ANGELA" transform="translate(292 496)" fill="rgba(237,106,90,0.15)" font-size="18" font-family="Comfortaa" letter-spacing="0.3em"><tspan x="0" y="0">ANGELA</tspan></text>
      <text id="MICHELLE" transform="translate(266 486)" fill="#fbfbf2" font-size="32" font-family="Comfortaa" letter-spacing="0.04em"><tspan x="0" y="0">MICHELLE</tspan></text>
      <text id="RACHO" transform="translate(266 515)" fill="#fbfbf2" font-size="32" font-family="Comfortaa-Bold, Comfortaa" font-weight="700" letter-spacing="0.362em"><tspan x="0" y="0">RACHO</tspan></text>
    </g>
  </g>
</svg>
